<svg width="24" height="24" viewBox="0 0 24 24" fill="none" xmlns="http://www.w3.org/2000/svg">
  <path d="M17.05 13.5c-.73 1.46-2.09 2.71-3.71 3.29 1.03.27 2.13.42 3.27.42 3.35 0 6.48-1.37 8.68-3.6-2.2 3.23-5.82 5.33-9.95 5.33-4.13 0-7.75-2.1-9.95-5.33 2.2 2.23 5.33 3.6 8.68 3.6 1.14 0 2.24-.15 3.27-.42-1.62-.58-2.98-1.83-3.71-3.29m-6.05-5c0-.55.45-1 1-1s1 .45 1 1-.45 1-1 1-1-.45-1-1m8 0c0-.55.45-1 1-1s1 .45 1 1-.45 1-1 1-1-.45-1-1M12 2c-5.33 0-10 3.58-10 8 0 1.54.42 3.01 1.16 4.3C2.6 13.54 1 12.08 1 10c0-5.33 4.47-9.67 10-9.67 5.33 0 9.67 4.34 9.67 9.67 0 2.08-1.6 3.86-3.84 5.02C21.58 13.01 22 11.54 22 10c0-4.42-4.67-8-10-8z" fill="#000000"/>
</svg>